<?xml version="1.0" encoding="UTF-8"?>
<svg width="270px" height="271px" viewBox="0 0 270 271" version="1.1" xmlns="http://www.w3.org/2000/svg" xmlns:xlink="http://www.w3.org/1999/xlink">
    <!-- Generator: Sketch 51.2 (57519) - http://www.bohemiancoding.com/sketch -->
    <title>Shape</title>
    <desc>Created with Sketch.</desc>
    <defs></defs>
    <g id="Page-1" stroke="none" stroke-width="1" fill="none" fill-rule="evenodd">
        <g id="placeholder-user" fill="#000000" fill-rule="nonzero">
            <path d="M135.01,127.4 C149.12,127.4 160.61,112.73 160.61,94.69 C160.61,77.96 150.32,66.72 135.01,66.72 C119.7,66.72 109.42,77.96 109.42,94.69 C109.41,112.72 120.9,127.4 135.01,127.4 Z M185.36,10.47 C169.8,4.21 152.8,0.76 134.99,0.76 C66.12,0.76 9.28,52.34 1.03,118.98 C0.35,124.48 0,130.08 0,135.76 C0,210.32 60.44,270.75 135,270.75 C209.57,270.75 270,210.32 270,135.76 C270,79 234.98,30.43 185.36,10.47 Z M135.01,56.21 C156.27,56.21 171.12,72.03 171.12,94.69 C171.12,118.52 154.92,137.91 135.01,137.91 C115.1,137.91 98.9,118.52 98.9,94.69 C98.9,72.03 113.75,56.21 135.01,56.21 Z M194.38,210.39 L194.32,210.39 C191.45,210.39 189.1,208.08 189.06,205.2 C188.99,199.36 188.88,194.33 188.81,193.51 C185.38,162.05 150.04,158.66 135.01,158.66 C117.23,158.66 86.65,162.79 81.66,190.42 C81.22,192.86 80.95,198.75 80.95,201.72 C80.95,204.63 78.59,206.98 75.69,206.98 C72.79,206.98 70.43,204.63 70.43,201.72 C70.43,198.86 70.69,192.07 71.31,188.57 C75.95,162.88 99.16,148.15 135.01,148.15 C172.22,148.15 196.24,164.7 199.27,192.41 C199.42,193.82 199.53,200.95 199.58,205.08 C199.6,207.97 197.28,210.35 194.38,210.39 Z" id="Shape"></path>
        </g>
    </g>
</svg>